<?xml version="1.0" encoding="UTF-8" standalone="no"?>
<!-- Created with Inkscape (http://www.inkscape.org/) -->

<svg
   width="256"
   height="256"
   viewBox="0 0 67.733332 67.733335"
   version="1.1"
   id="svg1"
   inkscape:version="1.3.2 (091e20e, 2023-11-25, custom)"
   sodipodi:docname="Frame.svg"
   xmlns:inkscape="http://www.inkscape.org/namespaces/inkscape"
   xmlns:sodipodi="http://sodipodi.sourceforge.net/DTD/sodipodi-0.dtd"
   xmlns="http://www.w3.org/2000/svg"
   xmlns:svg="http://www.w3.org/2000/svg">
  <sodipodi:namedview
     id="namedview1"
     pagecolor="#ffffff"
     bordercolor="#000000"
     borderopacity="0.25"
     inkscape:showpageshadow="2"
     inkscape:pageopacity="0.0"
     inkscape:pagecheckerboard="true"
     inkscape:deskcolor="#d1d1d1"
     inkscape:document-units="mm"
     inkscape:clip-to-page="false"
     inkscape:zoom="2.8044052"
     inkscape:cx="103.58703"
     inkscape:cy="95.385647"
     inkscape:window-width="1920"
     inkscape:window-height="1001"
     inkscape:window-x="-9"
     inkscape:window-y="-9"
     inkscape:window-maximized="1"
     inkscape:current-layer="svg1" />
  <defs
     id="defs1" />
  <path
     id="rect1"
     style="fill:#ffffff;fill-opacity:1;stroke-width:0.265;stroke-dasharray:none"
     inkscape:label="Frame"
     d="M 8.4666667 0 C 3.7761383 0 5.2404322e-17 3.7761383 0 8.4666667 L 0 59.266667 C 0 63.957195 3.7761383 67.733333 8.4666667 67.733333 L 59.266667 67.733333 C 63.957195 67.733333 67.733333 63.957195 67.733333 59.266667 L 67.733333 8.4666667 C 67.733333 3.7761383 63.957195 5.2404322e-17 59.266667 0 L 8.4666667 0 z M 12.7 4.2333333 L 55.033333 4.2333333 C 59.723862 4.2333333 63.5 8.0094716 63.5 12.7 L 63.5 55.033333 C 63.5 59.723862 59.723862 63.5 55.033333 63.5 L 12.7 63.5 C 8.0094716 63.5 4.2333333 59.723862 4.2333333 55.033333 L 4.2333333 12.7 C 4.2333333 8.0094716 8.0094716 4.2333333 12.7 4.2333333 z " />
</svg>
