<?xml version="1.0" encoding="UTF-8" standalone="no"?>
<!-- Uploaded to: SVG Repo, www.svgrepo.com, Generator: SVG Repo Mixer Tools -->

<svg
   fill="#000000"
   version="1.1"
   id="Layer_1"
   width="800px"
   height="800px"
   viewBox="0 0 100 100"
   enable-background="new 0 0 100 100"
   xml:space="preserve"
   sodipodi:docname="Marker.svg"
   inkscape:version="1.3.2 (091e20e, 2023-11-25, custom)"
   xmlns:inkscape="http://www.inkscape.org/namespaces/inkscape"
   xmlns:sodipodi="http://sodipodi.sourceforge.net/DTD/sodipodi-0.dtd"
   xmlns="http://www.w3.org/2000/svg"
   xmlns:svg="http://www.w3.org/2000/svg"><defs
   id="defs1" /><sodipodi:namedview
   id="namedview1"
   pagecolor="#ffffff"
   bordercolor="#000000"
   borderopacity="0.25"
   inkscape:showpageshadow="2"
   inkscape:pageopacity="0.0"
   inkscape:pagecheckerboard="0"
   inkscape:deskcolor="#d1d1d1"
   inkscape:zoom="0.98375"
   inkscape:cx="400"
   inkscape:cy="398.98348"
   inkscape:window-width="1920"
   inkscape:window-height="1001"
   inkscape:window-x="-9"
   inkscape:window-y="-9"
   inkscape:window-maximized="1"
   inkscape:current-layer="Layer_1" />
<g
   id="g1"
   style="fill:#0000ff;fill-opacity:1;stroke:#000000;stroke-opacity:1;stroke-width:6;stroke-dasharray:none">
	<path
   d="M50,10.417c-15.581,0-28.201,12.627-28.201,28.201c0,6.327,2.083,12.168,5.602,16.873L45.49,86.823   c0.105,0.202,0.21,0.403,0.339,0.588l0.04,0.069l0.011-0.006c0.924,1.278,2.411,2.111,4.135,2.111c1.556,0,2.912-0.708,3.845-1.799   l0.047,0.027l0.179-0.31c0.264-0.356,0.498-0.736,0.667-1.155L72.475,55.65c3.592-4.733,5.726-10.632,5.726-17.032   C78.201,23.044,65.581,10.417,50,10.417z M49.721,52.915c-7.677,0-13.895-6.221-13.895-13.895c0-7.673,6.218-13.895,13.895-13.895   s13.895,6.222,13.895,13.895C63.616,46.693,57.398,52.915,49.721,52.915z"
   id="path1"
   style="fill:#0000ff;fill-opacity:1;stroke:#000000;stroke-opacity:1;stroke-width:6;stroke-dasharray:none" />
</g>
</svg>
