<?xml version="1.0" encoding="UTF-8" standalone="no"?>
<svg
   width="800px"
   height="800px"
   viewBox="0 0 28 28"
   version="1.1"
   id="svg1"
   sodipodi:docname="Icon_Multiplayer.svg"
   inkscape:version="1.3.2 (091e20e, 2023-11-25, custom)"
   xmlns:inkscape="http://www.inkscape.org/namespaces/inkscape"
   xmlns:sodipodi="http://sodipodi.sourceforge.net/DTD/sodipodi-0.dtd"
   xmlns="http://www.w3.org/2000/svg"
   xmlns:svg="http://www.w3.org/2000/svg"
   xmlns:rdf="http://www.w3.org/1999/02/22-rdf-syntax-ns#"
   xmlns:cc="http://creativecommons.org/ns#"
   xmlns:dc="http://purl.org/dc/elements/1.1/">
  <defs
     id="defs1" />
  <sodipodi:namedview
     id="namedview1"
     pagecolor="#ffffff"
     bordercolor="#000000"
     borderopacity="0.25"
     inkscape:showpageshadow="2"
     inkscape:pageopacity="0.0"
     inkscape:pagecheckerboard="true"
     inkscape:deskcolor="#d1d1d1"
     inkscape:zoom="0.98375"
     inkscape:cx="400"
     inkscape:cy="400"
     inkscape:window-width="1920"
     inkscape:window-height="1001"
     inkscape:window-x="-9"
     inkscape:window-y="-9"
     inkscape:window-maximized="1"
     inkscape:current-layer="svg1" />
  <!-- Uploaded to: SVG Repo, www.svgrepo.com, Generator: SVG Repo Mixer Tools -->
  <title
     id="title1">ic_fluent_people_team_28_filled</title>
  <desc
     id="desc1">Created with Sketch.</desc>
  <g
     id="ðŸ”-Product-Icons"
     stroke="none"
     stroke-width="1"
     fill="none"
     fill-rule="evenodd"
     style="fill:#ffffff;fill-opacity:1">
    <g
       id="ic_fluent_people_team_28_filled"
       fill="#212121"
       fill-rule="nonzero"
       style="fill:#ffffff;fill-opacity:1">
      <path
         d="M17.7540247,11 C18.720523,11 19.5040247,11.7835017 19.5040247,12.75 L19.5040247,19.4989513 C19.5040247,22.5370966 17.0411213,25 14.002976,25 C10.9648308,25 8.50192738,22.5370966 8.50192738,19.4989513 L8.50192738,12.75 C8.50192738,11.7835017 9.28542907,11 10.2519274,11 L17.7540247,11 Z M3.75,11 L8.13210827,10.9980646 C7.78221386,11.420954 7.55643325,11.9502867 7.51057947,12.5302496 L7.50192738,12.75 L7.50192738,19.4989513 C7.50192738,20.6323434 7.79196393,21.6979939 8.30186513,22.6257307 C7.75085328,22.8662539 7.14166566,23 6.50123996,23 C4.01527377,23 2,20.9847262 2,18.49876 L2,12.75 C2,11.7835017 2.78350169,11 3.75,11 Z M19.8738438,10.9980646 L24.25,11 C25.2164983,11 26,11.7835017 26,12.75 L26,18.5 C26,20.9852814 23.9852814,23 21.5,23 C20.8609276,23 20.2529701,22.8667819 19.7023824,22.6266008 L19.7581025,22.5253735 C20.1867892,21.7118524 20.4480368,20.7963864 20.4959995,19.8248213 L20.5040247,19.4989513 L20.5040247,12.75 C20.5040247,12.084283 20.267475,11.4738152 19.8738438,10.9980646 Z M14,3 C15.9329966,3 17.5,4.56700338 17.5,6.5 C17.5,8.43299662 15.9329966,10 14,10 C12.0670034,10 10.5,8.43299662 10.5,6.5 C10.5,4.56700338 12.0670034,3 14,3 Z M22.0029842,4 C23.6598384,4 25.0029842,5.34314575 25.0029842,7 C25.0029842,8.65685425 23.6598384,10 22.0029842,10 C20.3461299,10 19.0029842,8.65685425 19.0029842,7 C19.0029842,5.34314575 20.3461299,4 22.0029842,4 Z M5.99701582,4 C7.65387007,4 8.99701582,5.34314575 8.99701582,7 C8.99701582,8.65685425 7.65387007,10 5.99701582,10 C4.34016157,10 2.99701582,8.65685425 2.99701582,7 C2.99701582,5.34314575 4.34016157,4 5.99701582,4 Z"
         id="ðŸŽ¨-Color"
         style="fill:#ffffff;fill-opacity:1" />
    </g>
  </g>
  <metadata
     id="metadata1">
    <rdf:RDF>
      <cc:Work
         rdf:about="">
        <dc:title>ic_fluent_people_team_28_filled</dc:title>
      </cc:Work>
    </rdf:RDF>
  </metadata>
</svg>
