<?xml version="1.0" encoding="UTF-8" standalone="no"?>
<svg
   width="800px"
   height="800px"
   viewBox="0 0 28 28"
   version="1.1"
   id="svg1"
   sodipodi:docname="Icon_Duo.svg"
   inkscape:version="1.3.2 (091e20e, 2023-11-25, custom)"
   xmlns:inkscape="http://www.inkscape.org/namespaces/inkscape"
   xmlns:sodipodi="http://sodipodi.sourceforge.net/DTD/sodipodi-0.dtd"
   xmlns="http://www.w3.org/2000/svg"
   xmlns:svg="http://www.w3.org/2000/svg"
   xmlns:rdf="http://www.w3.org/1999/02/22-rdf-syntax-ns#"
   xmlns:cc="http://creativecommons.org/ns#"
   xmlns:dc="http://purl.org/dc/elements/1.1/">
  <defs
     id="defs1" />
  <sodipodi:namedview
     id="namedview1"
     pagecolor="#ffffff"
     bordercolor="#000000"
     borderopacity="0.25"
     inkscape:showpageshadow="2"
     inkscape:pageopacity="0.0"
     inkscape:pagecheckerboard="true"
     inkscape:deskcolor="#d1d1d1"
     inkscape:zoom="0.6956163"
     inkscape:cx="509.62003"
     inkscape:cy="289.67119"
     inkscape:window-width="1920"
     inkscape:window-height="1001"
     inkscape:window-x="-9"
     inkscape:window-y="-9"
     inkscape:window-maximized="1"
     inkscape:current-layer="ðŸ”-Product-Icons" />
  <!-- Uploaded to: SVG Repo, www.svgrepo.com, Generator: SVG Repo Mixer Tools -->
  <title
     id="title1">ic_fluent_people_team_28_filled</title>
  <desc
     id="desc1">Created with Sketch.</desc>
  <g
     id="ðŸ”-Product-Icons"
     stroke="none"
     stroke-width="1"
     fill="none"
     fill-rule="evenodd"
     style="fill:#ffffff;fill-opacity:1">
    <path
       d="m 11.867159,11 c 0.966498,0 1.75,0.783502 1.75,1.75 v 6.748951 C 13.617159,22.537097 11.154255,25 8.11611,25 5.077965,25 2.6150614,22.537097 2.6150614,19.498951 V 12.75 c 0,-0.966498 0.7835017,-1.75 1.7499996,-1.75 z M 8.113134,3 c 1.932997,0 3.5,1.5670034 3.5,3.5 0,1.9329966 -1.567003,3.5 -3.5,3.5 -1.932997,0 -3.5,-1.5670034 -3.5,-3.5 0,-1.9329966 1.567003,-3.5 3.5,-3.5 z"
       id="ðŸŽ¨-Color"
       style="fill:#ffffff;fill-opacity:1;fill-rule:nonzero"
       sodipodi:nodetypes="sssssssssssss" />
    <path
       d="m 24.331021,10.795506 c 0.966498,0 1.75,0.783502 1.75,1.75 v 6.748951 c 0,3.038146 -2.462904,5.501049 -5.501049,5.501049 -3.038145,0 -5.501049,-2.462903 -5.501049,-5.501049 v -6.748951 c 0,-0.966498 0.783502,-1.75 1.75,-1.75 z M 20.576996,2.7955056 c 1.932997,0 3.5,1.5670034 3.5,3.5 0,1.932997 -1.567003,3.5 -3.5,3.5 -1.932997,0 -3.5,-1.567003 -3.5,-3.5 0,-1.9329966 1.567003,-3.5 3.5,-3.5 z"
       id="ðŸŽ¨-Color-9"
       style="fill:#ffffff;fill-opacity:1;fill-rule:nonzero"
       sodipodi:nodetypes="sssssssssssss" />
  </g>
  <metadata
     id="metadata1">
    <rdf:RDF>
      <cc:Work
         rdf:about="">
        <dc:title>ic_fluent_people_team_28_filled</dc:title>
      </cc:Work>
    </rdf:RDF>
  </metadata>
</svg>
