<?xml version="1.0" encoding="UTF-8" standalone="no"?>
<!-- Uploaded to: SVG Repo, www.svgrepo.com, Generator: SVG Repo Mixer Tools -->

<svg
   fill="#000000"
   width="800px"
   height="800px"
   viewBox="0 0 36 36"
   version="1.1"
   preserveAspectRatio="xMidYMid meet"
   id="svg1"
   sodipodi:docname="rewind2.svg"
   inkscape:version="1.3.2 (091e20e, 2023-11-25, custom)"
   xmlns:inkscape="http://www.inkscape.org/namespaces/inkscape"
   xmlns:sodipodi="http://sodipodi.sourceforge.net/DTD/sodipodi-0.dtd"
   xmlns="http://www.w3.org/2000/svg"
   xmlns:svg="http://www.w3.org/2000/svg"
   xmlns:rdf="http://www.w3.org/1999/02/22-rdf-syntax-ns#"
   xmlns:cc="http://creativecommons.org/ns#"
   xmlns:dc="http://purl.org/dc/elements/1.1/">
  <defs
     id="defs1" />
  <sodipodi:namedview
     id="namedview1"
     pagecolor="#ffffff"
     bordercolor="#000000"
     borderopacity="0.25"
     inkscape:showpageshadow="2"
     inkscape:pageopacity="0.0"
     inkscape:pagecheckerboard="true"
     inkscape:deskcolor="#d1d1d1"
     inkscape:zoom="0.6956163"
     inkscape:cx="362.98747"
     inkscape:cy="299.73421"
     inkscape:window-width="1920"
     inkscape:window-height="1001"
     inkscape:window-x="-9"
     inkscape:window-y="-9"
     inkscape:window-maximized="1"
     inkscape:current-layer="svg1" />
  <title
     id="title1">rewind-solid</title>
  <path
     class="clr-i-solid clr-i-solid-path-1"
     d="M 18.530102,4.2273396 34.265885,16.563289 a 2.0542798,2.0542798 0 0 1 0,3.23549 L 18.530102,32.124457 a 1.9823799,1.9823799 0 0 1 -2.136451,0.225971 1.9412943,1.9412943 0 0 1 -1.02714,-1.848852 V 23.61974 L 4.4172008,32.124457 A 1.9823799,1.9823799 0 0 1 2.3012933,32.350428 2.0542798,2.0542798 0 0 1 1.1611677,30.501576 V 5.8502206 A 2.0542798,2.0542798 0 0 1 2.3012933,4.0116404 1.9926513,1.9926513 0 0 1 4.4172008,4.237611 L 15.366511,12.721786 V 5.8502206 a 1.9412943,1.9412943 0 0 1 1.02714,-1.8385802 1.9926513,1.9926513 0 0 1 2.115909,0.2259706 z"
     id="path1"
     style="stroke-width:1.02714;fill:#ffffff;fill-opacity:1" />
  <metadata
     id="metadata1">
    <rdf:RDF>
      <cc:Work
         rdf:about="">
        <dc:title>rewind-solid</dc:title>
      </cc:Work>
    </rdf:RDF>
  </metadata>
</svg>
